# xmcd
#
# Track frame offsets:
#	150
#	17663
#	33525
#	46050
#	62100
#	85125
#	101325
#	114300
#	129638
#	146025
#	163313
#	178650
#
# Disc length: 2629 seconds
#
# Revision: 2
# Processed by: cddbd v1.5.1PL0 Copyright (c) Steve Scherf et al.
# Submitted via: audiograbber 1.82.02
#
DISCID=9f0a430c
DTITLE=Vol 31 - NuTech Karaoke vol 31
DYEAR=2003
DGENRE=KARAOKE
TTITLE0=Raitt, Bonnie - Better Your Heart Than Mine
TTITLE1=Keith, Toby - Wish I Didn't Know Now
TTITLE2=McCoy, Neil - Wink
TTITLE3=Yearwood, Trisha - Walking Away A Winner
TTITLE4=Yearwood, Trisha - How Can I Help You Say Goodbye
TTITLE5=Carter, Carlene - Something Already Gone
TTITLE6=Byrd, Tracy - Lifestyles of the Not So Rich 'n Famous
TTITLE7=McBride, Martina - Independence Day
TTITLE8=Raitt, Bonnie - Love Sneaking Up On You
TTITLE9=Brown, Sawyer - Outskirts Of Town
TTITLE10=Kershaw, Sammy - I Can't Reach Her Anymore
TTITLE11=Morgan, Lorrie - I Guess You Had To Be There (BGM)
EXTD=
EXTT0=
EXTT1=
EXTT2=
EXTT3=
EXTT4=
EXTT5=
EXTT6=
EXTT7=
EXTT8=
EXTT9=
EXTT10=
EXTT11=
PLAYORDER=
